<svg width="35" height="34" viewBox="0 0 35 34" fill="none" xmlns="http://www.w3.org/2000/svg">
<path fill-rule="evenodd" clip-rule="evenodd" d="M17.0764 1.83267C17.9148 1.83267 18.5944 1.42242 18.5944 0.916334C18.5944 0.410256 17.9148 0 17.0764 0C16.2381 0 15.5585 0.410256 15.5585 0.916334C15.5585 1.42242 16.2381 1.83267 17.0764 1.83267ZM0.943213 18.4949C1.46413 18.4949 1.88642 17.8365 1.88642 17.0243C1.88642 16.2122 1.46413 15.5538 0.943213 15.5538C0.42229 15.5538 0 16.2122 0 17.0243C0 17.8365 0.42229 18.4949 0.943213 18.4949ZM18.7651 4.93311C18.7651 5.76764 18.0099 6.44417 17.0783 6.44417C16.1466 6.44417 15.3915 5.76764 15.3915 4.93311C15.3915 4.09858 16.1466 3.42206 17.0783 3.42206C18.0099 3.42206 18.7651 4.09858 18.7651 4.93311ZM17.0764 34C17.9148 34 18.5944 33.5898 18.5944 33.0837C18.5944 32.5776 17.9148 32.1673 17.0764 32.1673C16.2381 32.1673 15.5585 32.5776 15.5585 33.0837C15.5585 33.5898 16.2381 34 17.0764 34ZM12.8802 0.582645C13.0365 0.924686 12.6669 1.42686 12.0545 1.70428C11.4422 1.98171 10.819 1.92932 10.6626 1.58729C10.5062 1.24524 10.8759 0.743065 11.4882 0.465643C12.1007 0.188219 12.7238 0.240603 12.8802 0.582645ZM6.69037 4.00278C7.11035 3.73356 7.34986 3.35923 7.2253 3.16669C7.10076 2.97416 6.65932 3.03634 6.23933 3.30556C5.81934 3.57479 5.57983 3.94913 5.70439 4.14166C5.82894 4.3342 6.27038 4.27202 6.69037 4.00278ZM28.1304 3.30402C28.5504 3.57325 28.7899 3.94759 28.6653 4.14012C28.5407 4.33266 28.0993 4.27048 27.6793 4.00126C27.2593 3.73202 27.0198 3.35769 27.1444 3.16515C27.269 2.97262 27.7103 3.0348 28.1304 3.30402ZM7.2253 30.9324C7.34985 30.7398 7.11035 30.3655 6.69036 30.0963C6.27038 29.8271 5.82894 29.7648 5.70438 29.9574C5.57984 30.1499 5.81933 30.5243 6.23933 30.7935C6.65932 31.0627 7.10076 31.1249 7.2253 30.9324ZM28.6653 29.9589C28.7899 30.1515 28.5504 30.5258 28.1304 30.795C27.7103 31.0642 27.269 31.1265 27.1444 30.9339C27.0198 30.7414 27.2593 30.367 27.6793 30.0978C28.0993 29.8286 28.5407 29.7664 28.6653 29.9589ZM12.9017 33.5505C13.058 33.2085 12.6884 32.7063 12.076 32.4289C11.4635 32.1514 10.8404 32.2038 10.684 32.5458C10.5276 32.888 10.8973 33.3901 11.5097 33.6675C12.1221 33.9449 12.7453 33.8926 12.9017 33.5505ZM3.89391 6.91345C4.19095 7.13877 4.08322 7.77671 3.65329 8.33831C3.22335 8.89991 2.63403 9.1725 2.33699 8.94718C2.03996 8.72184 2.14769 8.0839 2.57762 7.5223C3.00756 6.9607 3.59687 6.68811 3.89391 6.91345ZM3.38223 27.0439C3.71267 26.8706 3.71263 26.2238 3.38215 25.599C3.05167 24.9742 2.51588 24.6082 2.18545 24.7815C1.855 24.9547 1.85503 25.6015 2.18551 26.2262C2.51599 26.8511 3.05178 27.2171 3.38223 27.0439ZM32.0243 7.52258C32.4542 8.08417 32.5619 8.72211 32.2649 8.94744C31.9678 9.17277 31.3785 8.90018 30.9486 8.33858C30.5186 7.77698 30.411 7.13905 30.708 6.91371C31.005 6.68838 31.5943 6.96098 32.0243 7.52258ZM32.4129 26.2243C32.7434 25.5996 32.7434 24.9526 32.413 24.7795C32.0825 24.6063 31.5468 24.9723 31.2162 25.597C30.8857 26.2218 30.8857 26.8687 31.2161 27.042C31.5466 27.2151 32.0824 26.8491 32.4129 26.2243ZM34.3484 17.0243C34.3484 17.8365 33.9261 18.4949 33.4052 18.4949C32.8842 18.4949 32.462 17.8365 32.462 17.0243C32.462 16.2122 32.8842 15.5538 33.4052 15.5538C33.9261 15.5538 34.3484 16.2122 34.3484 17.0243ZM23.6837 1.58997C23.8401 1.24792 23.4704 0.745743 22.8581 0.46832C22.2457 0.190897 21.6225 0.243282 21.4661 0.585323C21.3098 0.927364 21.6794 1.42954 22.2918 1.70696C22.9041 1.98439 23.5274 1.932 23.6837 1.58997ZM23.6666 32.539C23.823 32.881 23.4533 33.3831 22.8409 33.6606C22.2285 33.938 21.6054 33.8856 21.449 33.5436C21.2926 33.2016 21.6623 32.6993 22.2746 32.4219C22.887 32.1446 23.5102 32.197 23.6666 32.539ZM25.5725 13.573C24.5779 13.2919 23.9858 12.1337 24.0826 11.1589C24.1741 10.2286 24.9971 9.54751 25.9323 9.89239C26.8675 10.2373 27.5398 11.2553 27.4622 12.2433C27.4483 12.4639 27.3849 12.6785 27.2767 12.8715C27.1685 13.0644 27.0182 13.2307 26.8369 13.3582C26.6557 13.4857 26.4481 13.5712 26.2292 13.6085C26.0104 13.6456 25.786 13.6334 25.5725 13.573ZM20.9334 5.61279C20.8385 6.5969 21.458 7.62886 22.4113 7.94848C23.2763 8.24219 24.1581 7.70262 24.1801 6.76835C24.2028 5.81679 23.532 4.82803 22.6529 4.46788C21.7858 4.11237 21.0175 4.74032 20.9334 5.61279ZM28.2374 19.1021C27.2261 18.8922 26.8096 17.7187 26.9691 16.7977C27.1287 15.8767 27.941 15.0654 28.9289 15.3491C29.8782 15.6215 30.4129 16.6615 30.2293 17.6011C30.0544 18.4961 29.194 19.3001 28.2374 19.1021ZM29.703 22.0034C29.5281 22.5337 29.6396 23.4507 30.3672 23.4833C31.0808 23.5151 31.7384 22.7909 31.9899 22.2081C32.2416 21.6254 31.9767 20.8499 31.3224 20.7556C30.6069 20.6525 29.914 21.3622 29.703 22.0034ZM26.8963 28.5698C26.1493 28.6482 26.2654 27.5956 26.3869 27.2202C26.5919 26.5876 27.3121 25.8413 28.0557 25.8587C28.738 25.8746 28.7994 26.6906 28.539 27.181C28.242 27.7372 27.5831 28.498 26.8963 28.5698ZM5.81664 26.7073C5.90342 27.427 6.52022 28.1506 7.15636 28.4901C7.67037 28.7646 8.32854 28.534 8.25511 27.8575C8.17635 27.1319 7.6183 26.3531 6.95945 26.0309C6.4094 25.7631 5.74189 26.0634 5.81664 26.7073ZM3.61321 23.3853C2.98107 23.1196 2.3536 22.3833 2.37362 21.6617C2.37774 21.5112 2.41812 21.364 2.49133 21.2322C2.56454 21.1006 2.66846 20.9884 2.79433 20.9051C2.9202 20.8217 3.06434 20.7696 3.21464 20.7533C3.36492 20.7369 3.51696 20.7567 3.65794 20.8111C4.34883 21.0769 4.84279 21.8742 4.85948 22.5933C4.87283 23.281 4.19863 23.6332 3.61321 23.3853ZM2.46355 12.1688C2.26328 12.725 2.43817 13.5476 3.13775 13.6307C3.86001 13.7165 4.54556 13.0253 4.75249 12.3828C4.9414 11.8113 4.79721 10.9309 4.08496 10.8963C3.39807 10.8638 2.69317 11.5336 2.46355 12.1688ZM6.42599 8.49737C5.69172 8.52063 5.72977 7.6136 5.93537 7.16839C6.21773 6.55705 6.89593 5.82014 7.57748 5.7816C8.31777 5.73907 8.23699 6.69128 8.09414 7.13715C7.89054 7.77042 7.16695 8.47345 6.42599 8.49737ZM26.2432 6.52793C26.2813 7.28478 26.8434 8.05958 27.5376 8.35595C28.0362 8.56858 28.8086 8.37123 28.6871 7.67218C28.5656 6.97314 27.9421 6.24153 27.3488 5.88868C26.794 5.55844 26.2112 5.9033 26.2432 6.52793ZM30.7924 13.6071C30.0814 13.3772 29.5701 12.5585 29.5994 11.8235C29.6228 11.1896 30.2317 10.7358 30.8525 11.0202C31.4733 11.3046 32.0627 12.0448 32.0861 12.7479C32.1067 13.4363 31.3725 13.7931 30.7924 13.6071ZM20.9901 27.9416C20.7852 28.7184 21.0568 29.8667 22.0101 29.9584C22.9566 30.0494 23.7683 29.1258 24.0553 28.3091C24.3357 27.5031 24.0713 26.4438 23.0954 26.3156C22.0942 26.1827 21.2297 27.0353 20.9901 27.9416ZM16.8891 30.3596C15.9405 30.1217 15.4079 29.0532 15.5487 28.1309C15.6955 27.1674 16.6168 26.4657 17.5893 26.6889C18.5826 26.9168 19.0879 27.9701 18.875 28.9176C18.6741 29.8001 17.8423 30.5995 16.8891 30.3596ZM10.2407 27.5512C10.2206 28.5015 10.8928 29.4883 11.7699 29.8504C12.6337 30.2072 13.4007 29.5826 13.4822 28.7121C13.575 27.7286 12.9548 26.6987 12.0029 26.3771C11.1411 26.086 10.26 26.6209 10.2407 27.5512ZM5.46002 19.0729C4.51414 18.7978 3.97343 17.7631 4.15301 16.8236C4.32455 15.9285 5.183 15.1284 6.13555 15.3291C7.14551 15.5424 7.56673 16.714 7.41053 17.6355C7.25432 18.5572 6.44395 19.3579 5.46002 19.0729ZM7.12233 11.4298C6.85398 12.3089 7.22913 13.392 8.21774 13.5761C9.24973 13.7687 10.1262 12.8797 10.3585 11.9454C10.5701 11.0935 10.257 9.90273 9.24505 9.77648C8.25712 9.65355 7.39067 10.5506 7.12233 11.4298ZM11.4061 8.01188C10.4295 7.87897 10.1612 6.82243 10.4415 6.01375C10.7219 5.20506 11.5376 4.27145 12.4828 4.36448C13.428 4.45751 13.7124 5.60575 13.5074 6.38586C13.2719 7.29355 12.4054 8.14411 11.4061 8.01188ZM11.0254 24.5219C9.32587 25.3353 8.4661 24.9366 7.65706 24.1452L7.65573 24.1413C7.22271 23.6798 6.9633 23.0835 6.92144 22.4534C6.82599 20.9883 8.01152 20.0552 8.87463 20.0699C8.8955 20.0704 8.91936 20.0706 8.94589 20.0708C9.16039 20.0729 9.54941 20.0767 9.94267 20.2446C10.1173 20.3198 10.2836 20.4491 10.4525 20.5804C10.5882 20.6859 10.7257 20.7927 10.8705 20.874C11.8177 21.4048 12.494 21.5204 13.1615 21.4952C13.7622 21.472 14.359 21.3676 15.2268 20.8899C16.3115 20.2918 16.8622 20.1596 17.5798 20.2786C18.4249 20.4168 18.9356 20.874 19.2786 21.4208C20.1591 22.8401 19.525 24.7047 17.5892 25.142C16.9817 25.2802 16.3395 25.1844 15.2715 24.6103C13.4572 23.6143 12.7169 23.696 11.0254 24.5219ZM18.6552 15.0978C18.3955 16.2806 18.6312 17.3424 20.5029 18.4475C22.3193 19.5213 22.7485 20.1008 22.7672 22.1554C22.7672 23.3514 22.9801 23.9149 23.3807 24.3103C24.661 25.5523 26.4046 24.9455 27.1261 23.5461C27.4065 22.9973 27.5493 22.3767 27.3218 21.6556C27.1214 21.0391 26.8204 20.6809 25.8785 20.118C25.1156 19.6628 24.7331 19.219 24.4139 18.7226C24.0548 18.1677 23.7985 17.5265 23.7204 16.4201C23.7087 16.2574 23.7199 16.0887 23.731 15.9214V15.9213C23.7459 15.6984 23.7605 15.4779 23.7204 15.2779C23.6348 14.8348 23.4032 14.4737 23.2765 14.2763L23.2764 14.2761C23.2629 14.255 23.2506 14.2359 23.2398 14.2187C22.7439 13.4266 21.1771 12.7282 19.8154 13.5349C19.2359 13.8826 18.8181 14.4444 18.6532 15.0978H18.6552ZM15.7399 15.1356C15.6424 17.2899 14.812 17.9976 13.6398 18.3211V18.3219C12.9813 18.4828 12.2856 18.3784 11.704 18.0315C10.3456 17.2102 10.2461 15.5123 10.7221 14.715C10.7328 14.697 10.7447 14.6767 10.7577 14.6542C10.8753 14.4523 11.0889 14.0854 11.441 13.8079C11.5985 13.6824 11.7992 13.5943 12.0023 13.5052C12.1572 13.4372 12.3134 13.3687 12.4529 13.2823C13.3935 12.7029 13.8387 12.1847 14.1598 11.6212C14.4489 11.1201 14.6598 10.5865 14.7058 9.73795C14.7646 8.69336 14.9381 8.29135 15.3801 7.85943C15.9001 7.36106 16.4969 7.21022 17.0976 7.18895C18.6216 7.14112 20.002 8.20496 19.5347 9.8868C19.3812 10.4124 18.9874 10.8629 17.9381 11.4311C16.1451 12.4165 15.8367 13.0472 15.7399 15.1356Z" fill="#7EFE19"/>
</svg>
